<?xml version="1.0" encoding="UTF-8"?>
<svg width="25px" height="29px" viewBox="0 0 25 29" version="1.1" xmlns="http://www.w3.org/2000/svg" xmlns:xlink="http://www.w3.org/1999/xlink">
    <!-- Generator: Sketch 53.2 (72643) - https://sketchapp.com -->
    <title>icons/black/Alarm</title>
    <desc>Created with Sketch.</desc>
    <g id="Page-1" stroke="none" stroke-width="1" fill="none" fill-rule="evenodd">
        <g id="Artboard" transform="translate(-66.000000, -239.000000)">
            <g id="icon/black/Alarm" transform="translate(55.000000, 229.000000)">
                <rect id="Rectangle-Copy-213" x="0" y="0" width="48" height="48"></rect>
                <g id="Group-43" stroke-width="1" fill-rule="evenodd" transform="translate(11.000000, 10.000000)" fill="#222222">
                    <path d="M8.00064511,24.5 C8.00064511,24.2238576 8.22450273,24 8.50064511,24 L16.5006451,24 C16.7767875,24 17.0006451,24.2238576 17.0006451,24.5 C17.0006451,26.9852814 14.9859265,29 12.5006451,29 C10.0153637,29 8.00064511,26.9852814 8.00064511,24.5 Z M12.5006451,28 C14.2638811,28 15.7225858,26.6961471 15.9652007,25 L9.03608953,25 C9.27870437,26.6961471 10.7374092,28 12.5006451,28 Z" id="Oval" fill-rule="nonzero"></path>
                    <path d="M1.3096621,24 L23.6916281,24 L22.1916281,21 L2.8096621,21 L1.3096621,24 Z M2.50064511,20 L22.5006451,20 C22.6900311,20 22.8631627,20.1070012 22.9478587,20.2763932 L24.9478587,24.2763932 C25.114084,24.6088437 24.8723361,25 24.5006451,25 L0.500645106,25 C0.128954095,25 -0.112793763,24.6088437 0.0534315102,24.2763932 L2.05343151,20.2763932 C2.13812752,20.1070012 2.31125908,20 2.50064511,20 Z" id="Rectangle" fill-rule="nonzero"></path>
                    <path d="M22.0006451,20 L22.0006451,10.5 C22.0006451,5.25329488 17.7473502,1 12.5006451,1 C7.25393998,1 3.00064511,5.25329488 3.00064511,10.5 L3.00064511,20 L22.0006451,20 Z M12.5006451,0 C18.299635,0 23.0006451,4.70101013 23.0006451,10.5 L23.0006451,20.5 C23.0006451,20.7761424 22.7767875,21 22.5006451,21 L2.50064511,21 C2.22450273,21 2.00064511,20.7761424 2.00064511,20.5 L2.00064511,10.5 C2.00064511,4.70101013 6.70165523,0 12.5006451,0 Z" id="Rectangle-Copy-215" fill-rule="nonzero"></path>
                </g>
            </g>
        </g>
    </g>
</svg>