<?xml version="1.0" encoding="UTF-8"?>
<svg width="33px" height="34px" viewBox="0 0 33 34" version="1.1" xmlns="http://www.w3.org/2000/svg" xmlns:xlink="http://www.w3.org/1999/xlink">
    <!-- Generator: Sketch 53.2 (72643) - https://sketchapp.com -->
    <title>icons/black/Calendar</title>
    <desc>Created with Sketch.</desc>
    <g id="Page-1" stroke="none" stroke-width="1" fill="none" fill-rule="evenodd">
        <g id="Artboard" transform="translate(-63.000000, -120.000000)">
            <g id="icons/black/Calendar" transform="translate(55.000000, 113.000000)">
                <rect id="boundingBox-Copy-24" x="0" y="0" width="48" height="48"></rect>
                <g id="Group-36" stroke-width="1" fill-rule="evenodd" transform="translate(8.000000, 7.000000)" fill="#222222">
                    <path d="M1,11 L1,32.5 C1,32.7761424 1.22385763,33 1.5,33 L31.5,33 C31.7761424,33 32,32.7761424 32,32.5 L32,11 L1,11 Z M0.5,10 L32.5,10 C32.7761424,10 33,10.2238576 33,10.5 L33,32.5 C33,33.3284271 32.3284271,34 31.5,34 L1.5,34 C0.671572875,34 0,33.3284271 0,32.5 L0,10.5 C0,10.2238576 0.223857625,10 0.5,10 Z" id="Rectangle-Copy-180" fill-rule="nonzero"></path>
                    <path d="M32,10 L32,3.5 C32,3.22385763 31.7761424,3 31.5,3 L1.5,3 C1.22385763,3 1,3.22385763 1,3.5 L1,10 L32,10 Z M1.5,2 L31.5,2 C32.3284271,2 33,2.67157288 33,3.5 L33,10.5 C33,10.7761424 32.7761424,11 32.5,11 L0.5,11 C0.223857625,11 0,10.7761424 0,10.5 L0,3.5 C0,2.67157288 0.671572875,2 1.5,2 Z" id="Rectangle-Copy-181" fill-rule="nonzero"></path>
                    <path d="M8,0.5 C8,0.223857625 8.22385763,0 8.5,0 C8.77614237,0 9,0.223857625 9,0.5 L9,4.5 C9,4.77614237 8.77614237,5 8.5,5 C8.22385763,5 8,4.77614237 8,4.5 L8,0.5 Z" id="Path-Copy-6" fill-rule="nonzero"></path>
                    <path d="M8.5,21 C7.11928813,21 6,19.8807119 6,18.5 C6,17.1192881 7.11928813,16 8.5,16 C9.88071187,16 11,17.1192881 11,18.5 C11,19.8807119 9.88071187,21 8.5,21 Z M8.5,20 C9.32842712,20 10,19.3284271 10,18.5 C10,17.6715729 9.32842712,17 8.5,17 C7.67157288,17 7,17.6715729 7,18.5 C7,19.3284271 7.67157288,20 8.5,20 Z" id="Oval-Copy-25" fill-rule="nonzero"></path>
                    <path d="M16.5,21 C15.1192881,21 14,19.8807119 14,18.5 C14,17.1192881 15.1192881,16 16.5,16 C17.8807119,16 19,17.1192881 19,18.5 C19,19.8807119 17.8807119,21 16.5,21 Z M16.5,20 C17.3284271,20 18,19.3284271 18,18.5 C18,17.6715729 17.3284271,17 16.5,17 C15.6715729,17 15,17.6715729 15,18.5 C15,19.3284271 15.6715729,20 16.5,20 Z" id="Oval-Copy-26" fill-rule="nonzero"></path>
                    <path d="M24.5,21 C23.1192881,21 22,19.8807119 22,18.5 C22,17.1192881 23.1192881,16 24.5,16 C25.8807119,16 27,17.1192881 27,18.5 C27,19.8807119 25.8807119,21 24.5,21 Z M24.5,20 C25.3284271,20 26,19.3284271 26,18.5 C26,17.6715729 25.3284271,17 24.5,17 C23.6715729,17 23,17.6715729 23,18.5 C23,19.3284271 23.6715729,20 24.5,20 Z" id="Oval-Copy-27" fill-rule="nonzero"></path>
                    <path d="M8.5,27 C7.11928813,27 6,25.8807119 6,24.5 C6,23.1192881 7.11928813,22 8.5,22 C9.88071187,22 11,23.1192881 11,24.5 C11,25.8807119 9.88071187,27 8.5,27 Z M8.5,26 C9.32842712,26 10,25.3284271 10,24.5 C10,23.6715729 9.32842712,23 8.5,23 C7.67157288,23 7,23.6715729 7,24.5 C7,25.3284271 7.67157288,26 8.5,26 Z" id="Oval-Copy-28" fill-rule="nonzero"></path>
                    <path d="M16.5,27 C15.1192881,27 14,25.8807119 14,24.5 C14,23.1192881 15.1192881,22 16.5,22 C17.8807119,22 19,23.1192881 19,24.5 C19,25.8807119 17.8807119,27 16.5,27 Z M16.5,26 C17.3284271,26 18,25.3284271 18,24.5 C18,23.6715729 17.3284271,23 16.5,23 C15.6715729,23 15,23.6715729 15,24.5 C15,25.3284271 15.6715729,26 16.5,26 Z" id="Oval-Copy-29" fill-rule="nonzero"></path>
                    <path d="M24,0.5 C24,0.223857625 24.2238576,0 24.5,0 C24.7761424,0 25,0.223857625 25,0.5 L25,4.5 C25,4.77614237 24.7761424,5 24.5,5 C24.2238576,5 24,4.77614237 24,4.5 L24,0.5 Z" id="Path-Copy-7" fill-rule="nonzero"></path>
                </g>
            </g>
        </g>
    </g>
</svg>