<?xml version="1.0" encoding="UTF-8"?>
<svg width="23px" height="30px" viewBox="0 0 23 30" version="1.1" xmlns="http://www.w3.org/2000/svg" xmlns:xlink="http://www.w3.org/1999/xlink">
    <!-- Generator: Sketch 53.2 (72643) - https://sketchapp.com -->
    <title>icons/black/delete</title>
    <desc>Created with Sketch.</desc>
    <g id="Page-1" stroke="none" stroke-width="1" fill="none" fill-rule="evenodd">
        <g id="Artboard" transform="translate(-242.000000, -122.000000)">
            <g id="icons/black/delete" transform="translate(229.000000, 113.000000)">
                <rect id="Rectangle-Copy-211" x="0" y="0" width="48" height="48"></rect>
                <g id="Group-42" stroke-width="1" fill-rule="evenodd" transform="translate(13.000000, 9.000000)" fill="#222222">
                    <path d="M3,6 L3,28.5 C3,28.7761424 3.22385763,29 3.5,29 L19.5,29 C19.7761424,29 20,28.7761424 20,28.5 L20,6 L3,6 Z M2.5,5 L20.5,5 C20.7761424,5 21,5.22385763 21,5.5 L21,28.5 C21,29.3284271 20.3284271,30 19.5,30 L3.5,30 C2.67157288,30 2,29.3284271 2,28.5 L2,5.5 C2,5.22385763 2.22385763,5 2.5,5 Z" id="Rectangle-Copy-216" fill-rule="nonzero"></path>
                    <path d="M1,1 L1,5 L22,5 L22,1 L1,1 Z M0.5,0 L22.5,0 C22.7761424,0 23,0.223857625 23,0.5 L23,5.5 C23,5.77614237 22.7761424,6 22.5,6 L0.5,6 C0.223857625,6 0,5.77614237 0,5.5 L0,0.5 C0,0.223857625 0.223857625,0 0.5,0 Z" id="Rectangle-Copy-219" fill-rule="nonzero"></path>
                    <path d="M7.5,11.5416667 C7.5,11.2425124 7.72385763,11 8,11 C8.27614237,11 8.5,11.2425124 8.5,11.5416667 L8.5,23.4583333 C8.5,23.7574876 8.27614237,24 8,24 C7.72385763,24 7.5,23.7574876 7.5,23.4583333 L7.5,11.5416667 Z" id="Path" fill-rule="nonzero"></path>
                    <path d="M11.5,11.5416667 C11.5,11.2425124 11.7238576,11 12,11 C12.2761424,11 12.5,11.2425124 12.5,11.5416667 L12.5,23.4583333 C12.5,23.7574876 12.2761424,24 12,24 C11.7238576,24 11.5,23.7574876 11.5,23.4583333 L11.5,11.5416667 Z" id="Path" fill-rule="nonzero"></path>
                    <path d="M15,11.5416667 C15,11.2425124 15.2238576,11 15.5,11 C15.7761424,11 16,11.2425124 16,11.5416667 L16,23.4583333 C16,23.7574876 15.7761424,24 15.5,24 C15.2238576,24 15,23.7574876 15,23.4583333 L15,11.5416667 Z" id="Path" fill-rule="nonzero"></path>
                </g>
            </g>
        </g>
    </g>
</svg>