<?xml version="1.0" encoding="UTF-8"?>
<svg width="30px" height="30px" viewBox="0 0 30 30" version="1.1" xmlns="http://www.w3.org/2000/svg" xmlns:xlink="http://www.w3.org/1999/xlink">
    <!-- Generator: Sketch 53.2 (72643) - https://sketchapp.com -->
    <title>icons/black/Filter</title>
    <desc>Created with Sketch.</desc>
    <g id="Page-1" stroke="none" stroke-width="1" fill="none" fill-rule="evenodd">
        <g id="Artboard" transform="translate(-238.000000, -238.000000)">
            <g id="icon/black/Filter" transform="translate(229.000000, 229.000000)">
                <rect id="Rectangle-Copy-132" x="0" y="0" width="48" height="48"></rect>
                <path d="M36.708323,10 L11.2911194,10 C10.7351699,10 10.3444697,10.2587282 10.1195064,10.7756963 C9.89454299,11.3190254 9.98716063,11.7832716 10.397603,12.1677026 L20.1875307,21.9715469 L20.1875307,31.6362638 C20.1875307,31.9811533 20.3132957,32.2794229 20.5648257,32.5313167 L25.6480714,37.6219152 C25.8866837,37.8735649 26.1842787,38 26.5418316,38 C26.7005002,38 26.8659933,37.9665606 27.0380671,37.9004141 C27.5545323,37.6748812 27.8128867,37.28386 27.8128867,36.7271063 L27.8128867,21.9715469 L37.6025707,12.1677026 C38.013013,11.7832716 38.1053869,11.3192695 37.8804236,10.7756963 C37.6552165,10.2587282 37.2650038,10.0002441 36.708323,10 Z" id="Shape" stroke="#222222" stroke-width="1" stroke-linecap="round" stroke-linejoin="round"></path>
            </g>
        </g>
    </g>
</svg>