<?xml version="1.0" encoding="UTF-8"?>
<svg width="27px" height="29px" viewBox="0 0 27 29" version="1.1" xmlns="http://www.w3.org/2000/svg" xmlns:xlink="http://www.w3.org/1999/xlink">
    <!-- Generator: Sketch 53.2 (72643) - https://sketchapp.com -->
    <title>icons/black/Glossary</title>
    <desc>Created with Sketch.</desc>
    <g id="Page-1" stroke="none" stroke-width="1" fill="none" fill-rule="evenodd">
        <g id="Artboard" transform="translate(-66.000000, -181.000000)">
            <g id="icons/black/Glossary" transform="translate(55.000000, 171.000000)">
                <rect id="boundingBox-Copy" x="0" y="0" width="48" height="48"></rect>
                <g id="Group-26" stroke-width="1" fill-rule="evenodd" transform="translate(11.000000, 10.000000)" fill="#222222">
                    <path d="M6,1 L6,8.28318378 L8.1798647,6.0785514 C8.37719947,5.8789745 8.70011207,5.88087976 8.89507808,6.08277132 L11,8.26246388 L11,1 L6,1 Z M5.85554491,9.85155059 C5.5413884,10.1692766 5,9.94681552 5,9.5 L5,0.5 C5,0.223857625 5.22385763,0 5.5,0 L11.5,0 C11.7761424,0 12,0.223857625 12,0.5 L12,9.5 C12,9.94967135 11.4527008,10.1707959 11.1403315,9.84733066 L8.53118856,7.1455062 L5.85554491,9.85155059 Z" id="Rectangle" fill-rule="nonzero"></path>
                    <path d="M2.50123872,1 C1.6728116,1 1.00123872,1.67157288 1.00123872,2.5 L1.00123872,22.4438387 C1.63419494,21.8020863 2.51977841,21.4336233 3.67142249,21.3304291 L26,21.3304291 L26,1 L2.50123872,1 Z M1.00123872,25.5 C1.00123872,26.1605029 0.0135944429,26.1696769 0.00132499623,25.509288 C-0.0216826723,24.2709265 0.255540201,23.2960432 0.853472489,22.6039209 C0.901099776,22.5487911 0.95035286,22.4954318 1.00123872,22.4438387 L1.00123872,25.5 Z M26.5,0 C26.7761424,0 27,0.223857625 27,0.5 L27,21.8304291 C27,22.1065715 26.7761424,22.3304291 26.5,22.3304291 L14.8630583,22.3304291 L3.71687181,22.3283592 C2.76039933,22.4156627 2.06767579,22.7281111 1.61019257,23.25766 C1.19220314,23.7414937 0.982363472,24.4794168 1.00115245,25.490712 L0.00123872262,25.5 L0.00123872262,2.5 C0.00123872262,1.11928813 1.12052685,1.49213975e-13 2.50123872,1.42108547e-13 L26.5,0 Z" id="Rectangle-Copy-154" fill-rule="nonzero"></path>
                    <path d="M26,22 L4,22 C2.34314575,22 1,23.3431458 1,25 C1,26.6568542 2.34314575,28 4,28 L26,28 L26,22 Z M4,21 L26.5,21 C26.7761424,21 27,21.2238576 27,21.5 L27,28.5 C27,28.7761424 26.7761424,29 26.5,29 L4,29 C1.790861,29 0,27.209139 0,25 C0,22.790861 1.790861,21 4,21 Z" id="Rectangle-Copy-155" fill-rule="nonzero"></path>
                    <path d="M26.5,24.5 C26.7761424,24.5 27,24.7238576 27,25 C27,25.2761424 26.7761424,25.5 26.5,25.5 L20.5,25.5 C20.2238576,25.5 20,25.2761424 20,25 C20,24.7238576 20.2238576,24.5 20.5,24.5 L26.5,24.5 Z" id="Line-Copy-3" fill-rule="nonzero"></path>
                </g>
            </g>
        </g>
    </g>
</svg>