<?xml version="1.0" encoding="UTF-8"?>
<svg width="32px" height="30px" viewBox="0 0 32 30" version="1.1" xmlns="http://www.w3.org/2000/svg" xmlns:xlink="http://www.w3.org/1999/xlink">
    <!-- Generator: Sketch 53.2 (72643) - https://sketchapp.com -->
    <title>icons/black/Home</title>
    <desc>Created with Sketch.</desc>
    <g id="Page-1" stroke="none" stroke-width="1" fill="none" fill-rule="evenodd">
        <g id="Artboard" transform="translate(-180.000000, -181.000000)">
            <g id="icons/black/Home" transform="translate(172.000000, 172.000000)">
                <rect id="Rectangle-Copy-129" x="0" y="0" width="48" height="48"></rect>
                <g id="Group-37" stroke-width="1" fill-rule="evenodd" transform="translate(8.000000, 9.000000)" fill="#222222">
                    <path d="M12.6060762,29.5 C12.6060762,29.7761424 12.3890021,30 12.1212277,30 L4.36365195,30 C4.09587752,30 3.87880346,29.7761424 3.87880346,29.5 L3.87880346,13.5 C3.87880346,13.2238576 4.09587752,13 4.36365195,13 C4.63142637,13 4.84850043,13.2238576 4.84850043,13.5 L4.84850043,29 L11.6363792,29 L11.6363792,20.5 C11.6363792,20.2238576 11.8534533,20 12.1212277,20 L19.8788035,20 C20.1465779,20 20.3636519,20.2238576 20.3636519,20.5 L20.3636519,29 L27.1515307,29 L27.1515307,13.5 C27.1515307,13.2238576 27.3686048,13 27.6363792,13 C27.9041536,13 28.1212277,13.2238576 28.1212277,13.5 L28.1212277,29.5 C28.1212277,29.7761424 27.9041536,30 27.6363792,30 L19.8788035,30 C19.611029,30 19.393955,29.7761424 19.393955,29.5 L19.393955,21 L12.6060762,21 L12.6060762,29.5 Z" id="Line-5-Copy-3" fill-rule="nonzero"></path>
                    <path d="M0.790605946,13.888057 C0.582782467,14.0621903 0.277422948,14.0296143 0.108566371,13.8152963 C-0.0602902066,13.6009783 -0.0287012908,13.2860763 0.179122189,13.111943 L15.6942737,0.111943 C15.8724083,-0.0373143333 16.1276228,-0.0373143333 16.3057575,0.111943 L31.820909,13.111943 C32.0287325,13.2860763 32.0603214,13.6009783 31.8914648,13.8152963 C31.7226082,14.0296143 31.4172487,14.0621903 31.2094252,13.888057 L16.0000156,1.14423525 L0.790605946,13.888057 Z" id="Line-7-Copy-3" fill-rule="nonzero"></path>
                    <path d="M21.8181974,3 C21.550423,3 21.3333489,2.77614237 21.3333489,2.5 C21.3333489,2.22385763 21.550423,2 21.8181974,2 L27.6363792,2 C27.9041536,2 28.1212277,2.22385763 28.1212277,2.5 L28.1212277,8.5 C28.1212277,8.77614237 27.9041536,9 27.6363792,9 C27.3686048,9 27.1515307,8.77614237 27.1515307,8.5 L27.1515307,3 L21.8181974,3 Z" id="Line-Copy-2" fill-rule="nonzero"></path>
                </g>
            </g>
        </g>
    </g>
</svg>