<?xml version="1.0" encoding="UTF-8"?>
<svg width="33px" height="23px" viewBox="0 0 33 23" version="1.1" xmlns="http://www.w3.org/2000/svg" xmlns:xlink="http://www.w3.org/1999/xlink">
    <!-- Generator: Sketch 53.2 (72643) - https://sketchapp.com -->
    <title>icons/black/Message</title>
    <desc>Created with Sketch.</desc>
    <g id="Page-1" stroke="none" stroke-width="1" fill="none" fill-rule="evenodd">
        <g id="Artboard" transform="translate(-179.000000, -242.000000)">
            <g id="icon/black/Message" transform="translate(171.000000, 230.000000)">
                <rect id="Rectangle-Copy-134" x="0" y="0" width="48" height="48"></rect>
                <path d="M9.5,13 C9.22385763,13 9,13.2238576 9,13.5 L9,33.5 C9,33.7761424 9.22385763,34 9.5,34 L39.5,34 C39.7761424,34 40,33.7761424 40,33.5 L40,13.5 C40,13.2238576 39.7761424,13 39.5,13 L9.5,13 Z M9.5,12 L39.5,12 C40.3284271,12 41,12.6715729 41,13.5 L41,33.5 C41,34.3284271 40.3284271,35 39.5,35 L9.5,35 C8.67157288,35 8,34.3284271 8,33.5 L8,13.5 C8,12.6715729 8.67157288,12 9.5,12 Z" id="Rectangle-Copy-135" fill="#222222" fill-rule="nonzero"></path>
                <path d="M38.1841224,14.1124313 C38.3981854,13.9379853 38.7131342,13.9701011 38.8875803,14.1841638 C39.0620264,14.3982266 39.0299107,14.7131751 38.8158478,14.8876211 L25.3177632,25.8875958 C25.1389117,26.033347 24.8835535,26.0377965 24.6997328,25.8983646 L10.1978589,14.89839 C9.97784851,14.7315075 9.93477994,14.417869 10.1016626,14.1978587 C10.2685452,13.9778485 10.5821839,13.93478 10.8021943,14.1016625 L24.9908191,24.8640311 L38.1841224,14.1124313 Z" id="Path-Copy-5" fill="#222222" fill-rule="nonzero"></path>
            </g>
        </g>
    </g>
</svg>