<?xml version="1.0" encoding="UTF-8"?>
<svg width="27px" height="27px" viewBox="0 0 27 27" version="1.1" xmlns="http://www.w3.org/2000/svg" xmlns:xlink="http://www.w3.org/1999/xlink">
    <!-- Generator: Sketch 53.2 (72643) - https://sketchapp.com -->
    <title>icons/black/NewMessage</title>
    <desc>Created with Sketch.</desc>
    <g id="Page-1" stroke="none" stroke-width="1" fill="none" fill-rule="evenodd">
        <g id="Artboard" transform="translate(-123.000000, -182.000000)">
            <g id="icons/black/NewMessage" transform="translate(113.000000, 171.000000)">
                <rect id="Rectangle-Copy-117" x="0" y="0" width="48" height="48"></rect>
                <g id="Group-39" stroke-width="1" fill-rule="evenodd" transform="translate(10.000000, 11.000000)">
                    <path d="M23.8571429,1 C23.5810005,1 23.3571429,0.776142375 23.3571429,0.5 C23.3571429,0.223857625 23.5810005,0 23.8571429,0 L26,0 C26.2761424,0 26.5,0.223857625 26.5,0.5 L26.5,20.5 C26.5,20.7761424 26.2761424,21 26,21 L6,21 C5.72385763,21 5.5,20.7761424 5.5,20.5 L5.5,18.3571429 C5.5,18.0810005 5.72385763,17.8571429 6,17.8571429 C6.27614237,17.8571429 6.5,18.0810005 6.5,18.3571429 L6.5,20 L25.5,20 L25.5,1 L23.8571429,1 Z" id="Rectangle-Copy-141" fill="#222222" fill-rule="nonzero" transform="translate(16.000000, 10.500000) rotate(-90.000000) translate(-16.000000, -10.500000) "></path>
                    <path d="M2.5,18.9285714 C2.5,19.2047138 2.27614237,19.4285714 2,19.4285714 C1.72385763,19.4285714 1.5,19.2047138 1.5,18.9285714 L1.5,4.5 C1.5,4.22385763 1.72385763,4 2,4 L22,4 C22.2761424,4 22.5,4.22385763 22.5,4.5 L22.5,24.5 C22.5,24.7761424 22.2761424,25 22,25 L7.57142857,25 C7.2952862,25 7.07142857,24.7761424 7.07142857,24.5 C7.07142857,24.2238576 7.2952862,24 7.57142857,24 L21.5,24 L21.5,5 L2.5,5 L2.5,18.9285714 Z" id="Rectangle-Copy-142" fill="#222222" fill-rule="nonzero" transform="translate(12.000000, 14.500000) rotate(-360.000000) translate(-12.000000, -14.500000) "></path>
                    <path d="M4.5,22 L7.5,22 C7.77614237,22 8,22.2238576 8,22.5 C8,22.7761424 7.77614237,23 7.5,23 L4.5,23 L4.5,26 C4.5,26.2761424 4.27614237,26.5 4,26.5 C3.72385763,26.5 3.5,26.2761424 3.5,26 L3.5,23 L0.5,23 C0.223857625,23 0,22.7761424 0,22.5 C0,22.2238576 0.223857625,22 0.5,22 L3.5,22 L3.5,19 C3.5,18.7238576 3.72385763,18.5 4,18.5 C4.27614237,18.5 4.5,18.7238576 4.5,19 L4.5,22 Z" id="Combined-Shape-Copy" fill="#000000"></path>
                </g>
            </g>
        </g>
    </g>
</svg>