<?xml version="1.0" encoding="UTF-8"?>
<svg width="34px" height="28px" viewBox="0 0 34 28" version="1.1" xmlns="http://www.w3.org/2000/svg" xmlns:xlink="http://www.w3.org/1999/xlink">
    <!-- Generator: Sketch 53.2 (72643) - https://sketchapp.com -->
    <title>icons/black/Printer</title>
    <desc>Created with Sketch.</desc>
    <g id="Page-1" stroke="none" stroke-width="1" fill="none" fill-rule="evenodd">
        <g id="Artboard" transform="translate(-120.000000, -123.000000)">
            <g id="icons/black/Printer" transform="translate(113.000000, 113.000000)">
                <rect id="Rectangle-Copy-126" x="0" y="0" width="48" height="48"></rect>
                <g id="Group-34" stroke-width="1" fill-rule="evenodd" transform="translate(7.000000, 10.000000)" fill="#222222">
                    <path d="M8.5,18 C8.77614237,18 9,18.2238576 9,18.5 C9,18.7761424 8.77614237,19 8.5,19 L4.5,19 C4.22385763,19 4,18.7761424 4,18.5 C4,18.2238576 4.22385763,18 4.5,18 L8.5,18 Z" id="Line-19-Copy-6" fill-rule="nonzero"></path>
                    <path d="M30.5,18 C30.7761424,18 31,18.2238576 31,18.5 C31,18.7761424 30.7761424,19 30.5,19 L27.5,19 C27.2238576,19 27,18.7761424 27,18.5 C27,18.2238576 27.2238576,18 27.5,18 L30.5,18 Z" id="Line-19-Copy-7" fill-rule="nonzero"></path>
                    <path d="M30,13 C30.2761424,13 30.5,13.2238576 30.5,13.5 C30.5,13.7761424 30.2761424,14 30,14 L27.5,14 C27.2238576,14 27,13.7761424 27,13.5 C27,13.2238576 27.2238576,13 27.5,13 L30,13 Z" id="Line-19-Copy-10" fill-rule="nonzero"></path>
                    <path d="M29.5,24 C31.4329966,24 33,22.4329966 33,20.5 L33,12.5 C33,10.5670034 31.4329966,9 29.5,9 L4.5,9 C2.56700338,9 1,10.5670034 1,12.5 L1,20.5 C1,22.4329966 2.56700338,24 4.5,24 L7,24 L7,18.5 C7,18.2238576 7.22385763,18 7.5,18 L27.4912491,18 C27.7671067,18 27.9908462,18.2234134 27.9912486,18.4992708 L27.9992713,24 L29.5,24 Z M8,24.5 C8,24.7761424 7.77614237,25 7.5,25 L4.5,25 C2.01471863,25 -1.13450915e-13,22.9852814 -1.13450915e-13,20.5 L-1.13450915e-13,12.5 C-1.13450915e-13,10.0147186 2.01471863,8 4.5,8 L29.5,8 C31.9852814,8 34,10.0147186 34,12.5 L34,20.5 C34,22.9852814 31.9852814,25 29.5,25 L27.5,25 C27.2241424,25 27.0004029,24.7765866 27.0000005,24.5007292 L26.9919778,19 L8,19 L8,24.5 Z" id="Rectangle-Copy-133" fill-rule="nonzero"></path>
                    <path d="M8,8.5 C8,8.77614237 7.77614237,9 7.5,9 C7.22385763,9 7,8.77614237 7,8.5 L7,1.5 C7,0.671572875 7.67157288,0 8.5,0 L26.5,0 C27.3284271,0 28,0.671572875 28,1.5 L28,8.5 C28,8.77614237 27.7761424,9 27.5,9 C27.2238576,9 27,8.77614237 27,8.5 L27,1.5 C27,1.22385763 26.7761424,1 26.5,1 L8.5,1 C8.22385763,1 8,1.22385763 8,1.5 L8,8.5 Z" id="Path-Copy-3" fill-rule="nonzero"></path>
                    <path d="M27,27 L27,21.5 C27,21.2238576 27.2238576,21 27.5,21 C27.7761424,21 28,21.2238576 28,21.5 L28,27.5 C28,27.7761424 27.7761424,28 27.5,28 L7.5,28 C7.22385763,28 7,27.7761424 7,27.5 L7,21.6818182 C7,21.4056758 7.22385763,21.1818182 7.5,21.1818182 C7.77614237,21.1818182 8,21.4056758 8,21.6818182 L8,27 L27,27 Z" id="Path-Copy-4" fill-rule="nonzero"></path>
                    <path d="M11.4642857,22.5 C11.2078678,22.5 11,22.2761424 11,22 C11,21.7238576 11.2078678,21.5 11.4642857,21.5 L23.5357143,21.5 C23.7921322,21.5 24,21.7238576 24,22 C24,22.2761424 23.7921322,22.5 23.5357143,22.5 L11.4642857,22.5 Z" id="Line-2-Copy-5" fill-rule="nonzero"></path>
                    <path d="M11.4642857,24.5 C11.2078678,24.5 11,24.2761424 11,24 C11,23.7238576 11.2078678,23.5 11.4642857,23.5 L23.5357143,23.5 C23.7921322,23.5 24,23.7238576 24,24 C24,24.2761424 23.7921322,24.5 23.5357143,24.5 L11.4642857,24.5 Z" id="Line-2-Copy-6" fill-rule="nonzero"></path>
                </g>
            </g>
        </g>
    </g>
</svg>