<?xml version="1.0" encoding="UTF-8"?>
<svg width="25px" height="35px" viewBox="0 0 25 35" version="1.1" xmlns="http://www.w3.org/2000/svg" xmlns:xlink="http://www.w3.org/1999/xlink">
    <!-- Generator: Sketch 53.2 (72643) - https://sketchapp.com -->
    <title>icons/black/ReportData</title>
    <desc>Created with Sketch.</desc>
    <g id="Page-1" stroke="none" stroke-width="1" fill="none" fill-rule="evenodd">
        <g id="Artboard" transform="translate(-183.000000, -120.000000)">
            <g id="icons/black/ReportData" transform="translate(171.000000, 113.000000)">
                <rect id="Rectangle-Copy-118" x="0" y="0" width="48" height="48"></rect>
                <g id="Group-28" stroke-width="1" fill-rule="evenodd" transform="translate(12.000000, 7.000000)" fill="#222222">
                    <path d="M1,34 L24,34 L24,3 L1,3 L1,34 Z M0.5,2 L24.5,2 C24.7761424,2 25,2.22385763 25,2.5 L25,34.5 C25,34.7761424 24.7761424,35 24.5,35 L0.5,35 C0.223857625,35 0,34.7761424 0,34.5 L0,2.5 C0,2.22385763 0.223857625,2 0.5,2 Z" id="Rectangle-Copy-184" fill-rule="nonzero"></path>
                    <path d="M9,2 L16,2 L16,1 L9,1 L9,2 Z M8.5,0 L16.5,0 C16.7761424,0 17,0.223857625 17,0.5 L17,2.5 C17,2.77614237 16.7761424,3 16.5,3 L8.5,3 C8.22385763,3 8,2.77614237 8,2.5 L8,0.5 C8,0.223857625 8.22385763,0 8.5,0 Z" id="Rectangle-Copy-185" fill-rule="nonzero"></path>
                    <path d="M4.5,7.5 C4.22385763,7.5 4,7.27614237 4,7 C4,6.72385763 4.22385763,6.5 4.5,6.5 L16.5,6.5 C16.7761424,6.5 17,6.72385763 17,7 C17,7.27614237 16.7761424,7.5 16.5,7.5 L4.5,7.5 Z" id="Line-9-Copy-14" fill-rule="nonzero"></path>
                    <path d="M4.5,11.5 C4.22385763,11.5 4,11.2761424 4,11 C4,10.7238576 4.22385763,10.5 4.5,10.5 L12.5,10.5 C12.7761424,10.5 13,10.7238576 13,11 C13,11.2761424 12.7761424,11.5 12.5,11.5 L4.5,11.5 Z" id="Line-9-Copy-15" fill-rule="nonzero"></path>
                    <path d="M4.82433473,27.8805351 C4.61417099,28.0596603 4.29859,28.0344985 4.11946488,27.8243347 C3.94033975,27.614171 3.96550152,27.29859 4.17566527,27.1194649 L9.01503056,22.9948147 C9.20191806,22.8355282 9.47681252,22.8355282 9.66370003,22.9948147 L14.1299476,26.8014521 L19.1259221,21.1682385 C19.3091489,20.9616409 19.625164,20.9426953 19.8317615,21.1259221 C20.0383591,21.3091489 20.0573047,21.625164 19.8740779,21.8317615 L14.5528085,27.8317615 C14.3721266,28.0354895 14.0616404,28.0571722 13.8543958,27.8805351 L9.33936529,24.0323194 L4.82433473,27.8805351 Z" id="Line-10-Copy-3" fill-rule="nonzero"></path>
                </g>
            </g>
        </g>
    </g>
</svg>