<?xml version="1.0" encoding="UTF-8"?>
<svg width="30px" height="27px" viewBox="0 0 30 27" version="1.1" xmlns="http://www.w3.org/2000/svg" xmlns:xlink="http://www.w3.org/1999/xlink">
    <!-- Generator: Sketch 53.2 (72643) - https://sketchapp.com -->
    <title>icons/black/Share</title>
    <desc>Created with Sketch.</desc>
    <g id="Page-1" stroke="none" stroke-width="1" fill="none" fill-rule="evenodd">
        <g id="Artboard" transform="translate(-122.000000, -65.000000)">
            <g id="icons/black/Share" transform="translate(113.000000, 55.000000)">
                <rect id="Rectangle-Copy-111" x="0" y="0" width="48" height="48"></rect>
                <g id="Group-9" stroke-width="1" fill-rule="evenodd" transform="translate(9.000000, 10.000000)" fill="#222222">
                    <path d="M19.7501339,21 C19.4739915,21 19.2501339,20.7761424 19.2501339,20.5 C19.2501339,20.2238576 19.4739915,20 19.7501339,20 L27.7501339,20 C28.0262762,20 28.2501339,20.2238576 28.2501339,20.5 C28.2501339,20.7761424 28.0262762,21 27.7501339,21 L19.7501339,21 Z" id="Line-4-Copy-3" fill-rule="nonzero" transform="translate(23.750134, 20.500000) rotate(-270.000000) translate(-23.750134, -20.500000) "></path>
                    <path d="M12.5001339,13 C8.910283,13 6.00013387,10.0898509 6.00013387,6.5 C6.00013387,2.91014913 8.910283,0 12.5001339,0 C16.0899847,0 19.0001339,2.91014913 19.0001339,6.5 C19.0001339,10.0898509 16.0899847,13 12.5001339,13 Z M12.5001339,12 C15.5377,12 18.0001339,9.53756612 18.0001339,6.5 C18.0001339,3.46243388 15.5377,1 12.5001339,1 C9.46256775,1 7.00013387,3.46243388 7.00013387,6.5 C7.00013387,9.53756612 9.46256775,12 12.5001339,12 Z" id="Oval-Copy-11" fill-rule="nonzero"></path>
                    <path d="M23.5001339,27 C19.910283,27 17.0001339,24.0898509 17.0001339,20.5 C17.0001339,16.9101491 19.910283,14 23.5001339,14 C27.0899847,14 30.0001339,16.9101491 30.0001339,20.5 C30.0001339,24.0898509 27.0899847,27 23.5001339,27 Z M23.5001339,26 C26.5377,26 29.0001339,23.5375661 29.0001339,20.5 C29.0001339,17.4624339 26.5377,15 23.5001339,15 C20.4625677,15 18.0001339,17.4624339 18.0001339,20.5 C18.0001339,23.5375661 20.4625677,26 23.5001339,26 Z" id="Oval-Copy-12" fill-rule="nonzero"></path>
                    <path d="M18.4663385,16.8374131 C16.7391095,16.2748562 14.7203753,16 12.5246244,16 C6.71813827,16 2.47092689,17.8526929 0.965479755,21.6829022 C0.86446567,21.9399056 0.574235125,22.06636 0.317231689,21.9653459 C0.0602282541,21.8643318 -0.0662260986,21.5741013 0.0347879871,21.3170978 C1.72409727,17.0191003 6.35278971,15 12.5246244,15 C14.9147266,15 17.1172221,15.3131133 19.0046005,15.9631021 C19.2982212,16.0642212 18.8138755,16.9506056 18.4663385,16.8374131 Z" id="Oval-Copy-18" fill-rule="nonzero"></path>
                    <path d="M19.5001339,21.25 C19.2239915,21.25 19.0001339,21.0261424 19.0001339,20.75 C19.0001339,20.4738576 19.2239915,20.25 19.5001339,20.25 L27.5001339,20.25 C27.7762762,20.25 28.0001339,20.4738576 28.0001339,20.75 C28.0001339,21.0261424 27.7762762,21.25 27.5001339,21.25 L19.5001339,21.25 Z" id="Line-4-Copy-2" fill-rule="nonzero"></path>
                </g>
            </g>
        </g>
    </g>
</svg>