<?xml version="1.0" encoding="UTF-8"?>
<svg width="25px" height="31px" viewBox="0 0 25 31" version="1.1" xmlns="http://www.w3.org/2000/svg" xmlns:xlink="http://www.w3.org/1999/xlink">
    <!-- Generator: Sketch 53.2 (72643) - https://sketchapp.com -->
    <title>icons/black/Tools</title>
    <desc>Created with Sketch.</desc>
    <g id="Page-1" stroke="none" stroke-width="1" fill="none" fill-rule="evenodd">
        <g id="Artboard" transform="translate(-125.000000, -238.000000)">
            <g id="icon/black/Tools" transform="translate(113.000000, 229.000000)">
                <rect id="Rectangle-Copy-179" x="0" y="0" width="48" height="48"></rect>
                <path d="M36.4862476,14 C36.7699852,14 37,14.2238576 37,14.5 C37,14.7761424 36.7699852,15 36.4862476,15 L26.5137524,15 C26.2300148,15 26,14.7761424 26,14.5 C26,14.2238576 26.2300148,14 26.5137524,14 L36.4862476,14 Z" id="Line-15-Copy-4" fill="#222222" fill-rule="nonzero"></path>
                <path d="M19,15 C17.8954305,15 17,14.1045695 17,13 C17,11.8954305 17.8954305,11 19,11 C20.1045695,11 21,11.8954305 21,13 C21,14.1045695 20.1045695,15 19,15 Z M19,14 C19.5522847,14 20,13.5522847 20,13 C20,12.4477153 19.5522847,12 19,12 C18.4477153,12 18,12.4477153 18,13 C18,13.5522847 18.4477153,14 19,14 Z" id="Oval-Copy-30" fill="#222222" fill-rule="nonzero"></path>
                <path d="M13,39 L22,39 L22,10 L13,10 L13,39 Z M12.5,9 L22.5,9 C22.7761424,9 23,9.22385763 23,9.5 L23,39.5 C23,39.7761424 22.7761424,40 22.5,40 L12.5,40 C12.2238576,40 12,39.7761424 12,39.5 L12,9.5 C12,9.22385763 12.2238576,9 12.5,9 Z" id="Rectangle-Copy-182" fill="#222222" fill-rule="nonzero"></path>
                <path d="M27,39 L36,39 L36,14.7071068 L31.5,10.2071068 L27,14.7071068 L27,39 Z M26.1464466,14.1464466 L31.1464466,9.14644661 C31.3417088,8.95118446 31.6582912,8.95118446 31.8535534,9.14644661 L36.8535534,14.1464466 C36.9473216,14.2402148 37,14.3673918 37,14.5 L37,39.5 C37,39.7761424 36.7761424,40 36.5,40 L26.5,40 C26.2238576,40 26,39.7761424 26,39.5 L26,14.5 C26,14.3673918 26.0526784,14.2402148 26.1464466,14.1464466 Z" id="Rectangle-Copy-183" fill="#222222" fill-rule="nonzero"></path>
                <path d="M36.4862476,37 C36.7699852,37 37,37.2238576 37,37.5 C37,37.7761424 36.7699852,38 36.4862476,38 L26.5137524,38 C26.2300148,38 26,37.7761424 26,37.5 C26,37.2238576 26.2300148,37 26.5137524,37 L36.4862476,37 Z" id="Line-15-Copy-5" fill="#222222" fill-rule="nonzero"></path>
                <path d="M36.4862476,35 C36.7699852,35 37,35.2238576 37,35.5 C37,35.7761424 36.7699852,36 36.4862476,36 L26.5137524,36 C26.2300148,36 26,35.7761424 26,35.5 C26,35.2238576 26.2300148,35 26.5137524,35 L36.4862476,35 Z" id="Line-15-Copy-6" fill="#222222" fill-rule="nonzero"></path>
                <path d="M13,21.5 C13,21.2238576 13.2238576,21 13.5,21 C13.7761424,21 14,21.2238576 14,21.5 L14,23.5 C14,23.7761424 13.7761424,24 13.5,24 C13.2238576,24 13,23.7761424 13,23.5 L13,21.5 Z" id="Line-14-Copy" fill="#222222" fill-rule="nonzero" transform="translate(13.500000, 22.500000) rotate(-270.000000) translate(-13.500000, -22.500000) "></path>
                <path d="M13,25.5 C13,25.2238576 13.2238576,25 13.5,25 C13.7761424,25 14,25.2238576 14,25.5 L14,27.5 C14,27.7761424 13.7761424,28 13.5,28 C13.2238576,28 13,27.7761424 13,27.5 L13,25.5 Z" id="Line-14-Copy-2" fill="#222222" fill-rule="nonzero" transform="translate(13.500000, 26.500000) rotate(-270.000000) translate(-13.500000, -26.500000) "></path>
                <path d="M13,34.5 C13,34.2238576 13.2238576,34 13.5,34 C13.7761424,34 14,34.2238576 14,34.5 L14,36.5 C14,36.7761424 13.7761424,37 13.5,37 C13.2238576,37 13,36.7761424 13,36.5 L13,34.5 Z" id="Line-14-Copy-3" fill="#222222" fill-rule="nonzero" transform="translate(13.500000, 35.500000) rotate(-270.000000) translate(-13.500000, -35.500000) "></path>
                <path d="M13.5,16.5 L13.5,18.5" id="Line-14" stroke="#222222" stroke-width="1" stroke-linecap="round" stroke-linejoin="round" transform="translate(13.500000, 17.500000) rotate(-270.000000) translate(-13.500000, -17.500000) "></path>
                <path d="M13,30.5 C13,30.2238576 13.2238576,30 13.5,30 C13.7761424,30 14,30.2238576 14,30.5 L14,32.5 C14,32.7761424 13.7761424,33 13.5,33 C13.2238576,33 13,32.7761424 13,32.5 L13,30.5 Z" id="Line-14-Copy-4" fill="#222222" fill-rule="nonzero" transform="translate(13.500000, 31.500000) rotate(-270.000000) translate(-13.500000, -31.500000) "></path>
            </g>
        </g>
    </g>
</svg>