<?xml version="1.0" encoding="UTF-8"?>
<svg width="22px" height="30px" viewBox="0 0 22 30" version="1.1" xmlns="http://www.w3.org/2000/svg" xmlns:xlink="http://www.w3.org/1999/xlink">
    <!-- Generator: Sketch 53.2 (72643) - https://sketchapp.com -->
    <title>icons/black/whatsnext</title>
    <desc>Created with Sketch.</desc>
    <g id="Page-1" stroke="none" stroke-width="1" fill="none" fill-rule="evenodd">
        <g id="Artboard" transform="translate(-242.000000, -180.000000)">
            <g id="icons/black/whatsnext" transform="translate(229.000000, 171.000000)">
                <rect id="Rectangle-Copy-214" x="0" y="0" width="48" height="48"></rect>
                <g id="Group-44" stroke-width="1" fill-rule="evenodd" transform="translate(13.000000, 9.000000)" fill="#222222">
                    <path d="M9,29 L13,29 L13,16 L9,16 L9,29 Z M8.5,15 L13.5,15 C13.7761424,15 14,15.2238576 14,15.5 L14,29.5 C14,29.7761424 13.7761424,30 13.5,30 L8.5,30 C8.22385763,30 8,29.7761424 8,29.5 L8,15.5 C8,15.2238576 8.22385763,15 8.5,15 Z" id="Rectangle-Copy-222" fill-rule="nonzero"></path>
                    <path d="M9,3 L13,3 L13,1 L9,1 L9,3 Z M8.5,0 L13.5,0 C13.7761424,0 14,0.223857625 14,0.5 L14,3.5 C14,3.77614237 13.7761424,4 13.5,4 L8.5,4 C8.22385763,4 8,3.77614237 8,3.5 L8,0.5 C8,0.223857625 8.22385763,0 8.5,0 Z" id="Rectangle-Copy-223" fill-rule="nonzero"></path>
                    <path d="M9,10 L13,10 L13,9 L9,9 L9,10 Z M8.5,8 L13.5,8 C13.7761424,8 14,8.22385763 14,8.5 L14,10.5 C14,10.7761424 13.7761424,11 13.5,11 L8.5,11 C8.22385763,11 8,10.7761424 8,10.5 L8,8.5 C8,8.22385763 8.22385763,8 8.5,8 Z" id="Rectangle-Copy-224" fill-rule="nonzero"></path>
                    <path d="M1.95454545,8 L18.4862943,8 L20.7772034,6 L18.4862943,4 L1.95454545,4 L1.95454545,8 Z M1.47727273,3 L18.6590909,3 C18.7707424,3 18.8788604,3.04100811 18.9646335,3.11588936 L21.8282698,5.61588936 C22.0572434,5.81578692 22.0572434,6.18421308 21.8282698,6.38411064 L18.9646335,8.88411064 C18.8788604,8.95899189 18.7707424,9 18.6590909,9 L1.47727273,9 C1.21368228,9 1,8.77614237 1,8.5 L1,3.5 C1,3.22385763 1.21368228,3 1.47727273,3 Z" id="Rectangle-Copy-225" fill-rule="nonzero"></path>
                    <path d="M0.954545455,15 L17.4862943,15 L19.7772034,13 L17.4862943,11 L0.954545455,11 L0.954545455,15 Z M0.477272727,10 L17.6590909,10 C17.7707424,10 17.8788604,10.0410081 17.9646335,10.1158894 L20.8282698,12.6158894 C21.0572434,12.8157869 21.0572434,13.1842131 20.8282698,13.3841106 L17.9646335,15.8841106 C17.8788604,15.9589919 17.7707424,16 17.6590909,16 L0.477272727,16 C0.213682278,16 0,15.7761424 0,15.5 L0,10.5 C0,10.2238576 0.213682278,10 0.477272727,10 Z" id="Rectangle-Copy-226" fill-rule="nonzero" transform="translate(10.500000, 13.000000) rotate(-180.000000) translate(-10.500000, -13.000000) "></path>
                </g>
            </g>
        </g>
    </g>
</svg>