<?xml version="1.0" encoding="UTF-8"?>
<svg width="27px" height="27px" viewBox="0 0 27 27" version="1.1" xmlns="http://www.w3.org/2000/svg" xmlns:xlink="http://www.w3.org/1999/xlink">
    <!-- Generator: Sketch 53.2 (72643) - https://sketchapp.com -->
    <title>icons/black/Workspace</title>
    <desc>Created with Sketch.</desc>
    <g id="Page-1" stroke="none" stroke-width="1" fill="none" fill-rule="evenodd">
        <g id="Artboard" transform="translate(-182.000000, -66.000000)">
            <g id="icons/black/Workspace" transform="translate(171.000000, 55.000000)">
                <g id="icons/black/Workspace-Copy">
                    <rect id="boundingBox-Copy-8" x="0" y="0" width="48" height="48"></rect>
                </g>
                <g id="Group-67" transform="translate(11.000000, 11.000000)" fill="#212121">
                    <path d="M26,26 L23.936,26 L23.936,24.159 C23.936,23.883 23.712,23.659 23.436,23.659 C23.159,23.659 22.936,23.883 22.936,24.159 L22.936,26 L21.068,26 L21.068,25.329 C21.068,25.053 20.845,24.829 20.568,24.829 C20.292,24.829 20.068,25.053 20.068,25.329 L20.068,26 L18.201,26 L18.201,24.159 C18.201,23.883 17.977,23.659 17.701,23.659 C17.424,23.659 17.201,23.883 17.201,24.159 L17.201,26 L15.333,26 L15.333,25.329 C15.333,25.053 15.11,24.829 14.833,24.829 C14.557,24.829 14.333,25.053 14.333,25.329 L14.333,26 L12.466,26 L12.466,24.159 C12.466,23.883 12.242,23.659 11.966,23.659 C11.689,23.659 11.466,23.883 11.466,24.159 L11.466,26 L9.599,26 L9.599,25.329 C9.599,25.053 9.375,24.829 9.099,24.829 C8.822,24.829 8.599,25.053 8.599,25.329 L8.599,26 L6.731,26 L6.731,24.159 C6.731,23.883 6.508,23.659 6.231,23.659 C5.955,23.659 5.731,23.883 5.731,24.159 L5.731,26 L1,26 L1,21.204 L2.916,21.204 C3.192,21.204 3.416,20.98 3.416,20.704 C3.416,20.428 3.192,20.204 2.916,20.204 L1,20.204 L1,18.337 L1.746,18.337 C2.022,18.337 2.246,18.113 2.246,17.837 C2.246,17.561 2.022,17.337 1.746,17.337 L1,17.337 L1,15.47 L2.916,15.47 C3.192,15.47 3.416,15.246 3.416,14.97 C3.416,14.693 3.192,14.47 2.916,14.47 L1,14.47 L1,12.602 L1.746,12.602 C2.022,12.602 2.246,12.378 2.246,12.102 C2.246,11.826 2.022,11.602 1.746,11.602 L1,11.602 L1,9.735 L2.916,9.735 C3.192,9.735 3.416,9.511 3.416,9.235 C3.416,8.958 3.192,8.735 2.916,8.735 L1,8.735 L1,6.867 L1.746,6.867 C2.022,6.867 2.246,6.644 2.246,6.367 C2.246,6.091 2.022,5.867 1.746,5.867 L1,5.867 L1,4 L2.916,4 C3.192,4 3.416,3.776 3.416,3.5 C3.416,3.224 3.192,3 2.916,3 L1,3 L1,1 L5.765,1 L5.765,20.734 C5.765,21.011 5.989,21.234 6.265,21.234 L26,21.234 L26,26 Z M26.5,20.234 L6.765,20.234 L6.765,0.5 C6.765,0.224 6.542,0 6.265,0 L0.5,0 C0.224,0 0,0.224 0,0.5 L0,26.5 C0,26.776 0.224,27 0.5,27 L26.5,27 C26.776,27 27,26.776 27,26.5 L27,20.734 C27,20.458 26.776,20.234 26.5,20.234 L26.5,20.234 Z" id="Fill-1"></path>
                    <path d="M24.498,1 C24.778,1 24.998,0.78 24.998,0.5 C24.998,0.22 24.778,0 24.498,0 C24.218,0 23.998,0.22 23.998,0.5 C23.998,0.78 24.218,1 24.498,1" id="Fill-3"></path>
                    <path d="M20.498,17 C20.778,17 20.998,16.77 20.998,16.5 C20.998,16.22 20.778,16 20.498,16 C20.228,16 19.998,16.22 19.998,16.5 C19.998,16.77 20.228,17 20.498,17" id="Fill-5"></path>
                    <path d="M24.498,17 C24.778,17 24.998,16.77 24.998,16.5 C24.998,16.22 24.778,16 24.498,16 C24.218,16 23.998,16.22 23.998,16.5 C23.998,16.77 24.218,17 24.498,17" id="Fill-7"></path>
                    <path d="M26.498,15 C26.778,15 26.998,14.78 26.998,14.5 C26.998,14.22 26.778,14 26.498,14 C26.228,14 25.998,14.22 25.998,14.5 C25.998,14.78 26.228,15 26.498,15" id="Fill-9"></path>
                    <path d="M22.498,1 C22.778,1 22.998,0.78 22.998,0.5 C22.998,0.22 22.778,0 22.498,0 C22.228,0 21.998,0.22 21.998,0.5 C21.998,0.78 22.228,1 22.498,1" id="Fill-11"></path>
                    <path d="M20.498,1 C20.778,1 20.998,0.78 20.998,0.5 C20.998,0.22 20.778,0 20.498,0 C20.228,0 19.998,0.22 19.998,0.5 C19.998,0.78 20.228,1 20.498,1" id="Fill-13"></path>
                    <path d="M22.498,17 C22.778,17 22.998,16.77 22.998,16.5 C22.998,16.22 22.778,16 22.498,16 C22.228,16 21.998,16.22 21.998,16.5 C21.998,16.77 22.228,17 22.498,17" id="Fill-15"></path>
                    <path d="M26.498,3 C26.778,3 26.998,2.78 26.998,2.5 C26.998,2.22 26.778,2 26.498,2 C26.228,2 25.998,2.22 25.998,2.5 C25.998,2.78 26.228,3 26.498,3" id="Fill-17"></path>
                    <path d="M18.498,1 C18.778,1 18.998,0.78 18.998,0.5 C18.998,0.22 18.778,0 18.498,0 C18.228,0 17.998,0.22 17.998,0.5 C17.998,0.78 18.228,1 18.498,1" id="Fill-19"></path>
                    <path d="M26.498,1 C26.778,1 26.998,0.78 26.998,0.5 C26.998,0.22 26.778,0 26.498,0 C26.228,0 25.998,0.22 25.998,0.5 C25.998,0.78 26.228,1 26.498,1" id="Fill-21"></path>
                    <path d="M26.498,5 C26.778,5 26.998,4.78 26.998,4.5 C26.998,4.22 26.778,4 26.498,4 C26.228,4 25.998,4.22 25.998,4.5 C25.998,4.78 26.228,5 26.498,5" id="Fill-23"></path>
                    <path d="M26.498,7 C26.778,7 26.998,6.78 26.998,6.5 C26.998,6.22 26.778,6 26.498,6 C26.228,6 25.998,6.22 25.998,6.5 C25.998,6.78 26.228,7 26.498,7" id="Fill-25"></path>
                    <path d="M26.498,11 C26.778,11 26.998,10.78 26.998,10.5 C26.998,10.22 26.778,10 26.498,10 C26.228,10 25.998,10.22 25.998,10.5 C25.998,10.78 26.228,11 26.498,11" id="Fill-27"></path>
                    <path d="M26.498,13 C26.778,13 26.998,12.78 26.998,12.5 C26.998,12.22 26.778,12 26.498,12 C26.228,12 25.998,12.22 25.998,12.5 C25.998,12.78 26.228,13 26.498,13" id="Fill-29"></path>
                    <path d="M26.498,9 C26.778,9 26.998,8.78 26.998,8.5 C26.998,8.22 26.778,8 26.498,8 C26.228,8 25.998,8.22 25.998,8.5 C25.998,8.78 26.228,9 26.498,9" id="Fill-31"></path>
                    <path d="M26.498,17 C26.778,17 26.998,16.77 26.998,16.5 C26.998,16.22 26.778,16 26.498,16 C26.228,16 25.998,16.22 25.998,16.5 C25.998,16.77 26.228,17 26.498,17" id="Fill-33"></path>
                    <path d="M10.498,9 C10.778,9 10.998,8.78 10.998,8.5 C10.998,8.22 10.778,8 10.498,8 C10.228,8 9.998,8.22 9.998,8.5 C9.998,8.78 10.228,9 10.498,9" id="Fill-35"></path>
                    <path d="M10.498,3 C10.778,3 10.998,2.78 10.998,2.5 C10.998,2.22 10.778,2 10.498,2 C10.228,2 9.998,2.22 9.998,2.5 C9.998,2.78 10.228,3 10.498,3" id="Fill-37"></path>
                    <path d="M10.498,11 C10.778,11 10.998,10.78 10.998,10.5 C10.998,10.22 10.778,10 10.498,10 C10.228,10 9.998,10.22 9.998,10.5 C9.998,10.78 10.228,11 10.498,11" id="Fill-39"></path>
                    <path d="M10.498,5 C10.778,5 10.998,4.78 10.998,4.5 C10.998,4.22 10.778,4 10.498,4 C10.228,4 9.998,4.22 9.998,4.5 C9.998,4.78 10.228,5 10.498,5" id="Fill-41"></path>
                    <path d="M10.498,7 C10.778,7 10.998,6.78 10.998,6.5 C10.998,6.22 10.778,6 10.498,6 C10.228,6 9.998,6.22 9.998,6.5 C9.998,6.78 10.228,7 10.498,7" id="Fill-43"></path>
                    <path d="M10.498,13 C10.778,13 10.998,12.78 10.998,12.5 C10.998,12.22 10.778,12 10.498,12 C10.228,12 9.998,12.22 9.998,12.5 C9.998,12.78 10.228,13 10.498,13" id="Fill-45"></path>
                    <path d="M10.498,17 C10.778,17 10.998,16.77 10.998,16.5 C10.998,16.22 10.778,16 10.498,16 C10.228,16 9.998,16.22 9.998,16.5 C9.998,16.77 10.228,17 10.498,17" id="Fill-47"></path>
                    <path d="M10.498,15 C10.778,15 10.998,14.78 10.998,14.5 C10.998,14.22 10.778,14 10.498,14 C10.228,14 9.998,14.22 9.998,14.5 C9.998,14.78 10.228,15 10.498,15" id="Fill-49"></path>
                    <path d="M14.498,17 C14.778,17 14.998,16.77 14.998,16.5 C14.998,16.22 14.778,16 14.498,16 C14.228,16 13.998,16.22 13.998,16.5 C13.998,16.77 14.228,17 14.498,17" id="Fill-51"></path>
                    <path d="M16.498,17 C16.778,17 16.998,16.77 16.998,16.5 C16.998,16.22 16.778,16 16.498,16 C16.228,16 15.998,16.22 15.998,16.5 C15.998,16.77 16.228,17 16.498,17" id="Fill-53"></path>
                    <path d="M16.498,1 C16.778,1 16.998,0.78 16.998,0.5 C16.998,0.22 16.778,0 16.498,0 C16.228,0 15.998,0.22 15.998,0.5 C15.998,0.78 16.228,1 16.498,1" id="Fill-55"></path>
                    <path d="M14.498,1 C14.778,1 14.998,0.78 14.998,0.5 C14.998,0.22 14.778,0 14.498,0 C14.228,0 13.998,0.22 13.998,0.5 C13.998,0.78 14.228,1 14.498,1" id="Fill-57"></path>
                    <path d="M12.498,17 C12.778,17 12.998,16.77 12.998,16.5 C12.998,16.22 12.778,16 12.498,16 C12.228,16 11.998,16.22 11.998,16.5 C11.998,16.77 12.228,17 12.498,17" id="Fill-59"></path>
                    <path d="M18.498,17 C18.778,17 18.998,16.77 18.998,16.5 C18.998,16.22 18.778,16 18.498,16 C18.228,16 17.998,16.22 17.998,16.5 C17.998,16.77 18.228,17 18.498,17" id="Fill-61"></path>
                    <path d="M10.498,1 C10.778,1 10.998,0.78 10.998,0.5 C10.998,0.22 10.778,0 10.498,0 C10.228,0 9.998,0.22 9.998,0.5 C9.998,0.78 10.228,1 10.498,1" id="Fill-63"></path>
                    <path d="M12.498,1 C12.778,1 12.998,0.78 12.998,0.5 C12.998,0.22 12.778,0 12.498,0 C12.228,0 11.998,0.22 11.998,0.5 C11.998,0.78 12.228,1 12.498,1" id="Fill-65"></path>
                </g>
            </g>
        </g>
    </g>
</svg>